<svg width="64" height="64" viewBox="0 0 64 64" fill="none" xmlns="http://www.w3.org/2000/svg">
<rect width="64" height="64" rx="4" fill="#FF7A29"/>
<path d="M51.6612 31.7697C50.8652 17.932 43.7167 15.9088 37.9535 15.9081H37.9528C36.4966 15.9088 35.1303 16.0374 33.976 16.1384C33.9661 15.5091 33.993 14.8351 34.0987 14.0903C34.1007 14.0798 34.0961 14.0706 34.0947 14.0608C34.0961 14.0555 34.0987 14.0502 34.0987 14.045C34.0987 13.8133 33.6629 13.625 33.1235 13.625C32.5854 13.625 32.1496 13.8133 32.1496 14.045C32.002 14.7958 31.8009 15.5351 31.5478 16.2572C23.9439 16.3032 13.9275 17.5093 12.3985 31.2998C11.2894 41.3083 21.0642 50.375 32.061 50.375C43.0578 50.375 52.2394 41.8273 51.6612 31.7697ZM34.3855 18.079C34.6539 18.0553 34.9321 18.0311 35.2182 18.0081C34.8744 18.1466 34.5403 18.2903 34.226 18.4347C34.203 18.331 34.1873 18.2076 34.1663 18.0973L34.3855 18.079ZM30.7374 18.2352C30.6514 18.4143 30.5674 18.5862 30.4867 18.7444C30.2931 18.5692 30.0886 18.4066 29.8744 18.2575C30.1618 18.2476 30.4493 18.2411 30.7374 18.2352ZM45.5496 42.7139C42.1338 46.3318 37.2172 48.4062 32.061 48.4062C26.8064 48.4062 21.5873 46.0805 18.0987 42.185C15.2722 39.0278 13.9426 35.2393 14.3554 31.5163C15.1304 24.5286 18.222 21.1909 22.1897 19.61C26.034 18.896 29.6513 20.2072 29.6513 20.2072C29.6513 20.2072 21.4291 18.1663 18.205 28.7306C22.2626 22.405 29.2451 24.2668 31.0819 21.9351C31.0819 26.4429 34.3579 24.2556 36.0136 26.286C38.1438 28.8966 38.9234 33.5743 41.3739 34.4957C38.9602 29.314 42.9121 29.5161 37.3596 22.5618C40.2845 24.379 41.8011 22.5402 45.795 24.1775C42.3779 18.5922 36.9114 20.2072 36.9114 20.2072C36.9114 20.2072 39.1361 18.18 41.4946 18.2365C45.4794 19.167 49.1445 22.298 49.6964 31.8832C49.9209 35.7977 48.4482 39.644 45.5496 42.7139Z" fill="white"/>
</svg>
