<svg width="49" height="14" viewBox="0 0 49 14" fill="none" xmlns="http://www.w3.org/2000/svg">
<path d="M2.51953 7.99414V11H0.761719V2.46875H4.08984C4.73047 2.46875 5.29297 2.58594 5.77734 2.82031C6.26562 3.05469 6.64062 3.38867 6.90234 3.82227C7.16406 4.25195 7.29492 4.74219 7.29492 5.29297C7.29492 6.12891 7.00781 6.78906 6.43359 7.27344C5.86328 7.75391 5.07227 7.99414 4.06055 7.99414H2.51953ZM2.51953 6.57031H4.08984C4.55469 6.57031 4.9082 6.46094 5.15039 6.24219C5.39648 6.02344 5.51953 5.71094 5.51953 5.30469C5.51953 4.88672 5.39648 4.54883 5.15039 4.29102C4.9043 4.0332 4.56445 3.90039 4.13086 3.89258H2.51953V6.57031ZM8.05078 7.77148C8.05078 7.14258 8.17188 6.58203 8.41406 6.08984C8.65625 5.59766 9.00391 5.2168 9.45703 4.94727C9.91406 4.67773 10.4434 4.54297 11.0449 4.54297C11.9004 4.54297 12.5977 4.80469 13.1367 5.32812C13.6797 5.85156 13.9824 6.5625 14.0449 7.46094L14.0566 7.89453C14.0566 8.86719 13.7852 9.64844 13.2422 10.2383C12.6992 10.8242 11.9707 11.1172 11.0566 11.1172C10.1426 11.1172 9.41211 10.8242 8.86523 10.2383C8.32227 9.65234 8.05078 8.85547 8.05078 7.84766V7.77148ZM9.74414 7.89453C9.74414 8.49609 9.85742 8.95703 10.084 9.27734C10.3105 9.59375 10.6348 9.75195 11.0566 9.75195C11.4668 9.75195 11.7871 9.5957 12.0176 9.2832C12.248 8.9668 12.3633 8.46289 12.3633 7.77148C12.3633 7.18164 12.248 6.72461 12.0176 6.40039C11.7871 6.07617 11.4629 5.91406 11.0449 5.91406C10.6309 5.91406 10.3105 6.07617 10.084 6.40039C9.85742 6.7207 9.74414 7.21875 9.74414 7.89453ZM16.6875 4.66016L16.7402 5.36914C17.1895 4.81836 17.7969 4.54297 18.5625 4.54297C19.3789 4.54297 19.9395 4.86523 20.2441 5.50977C20.6895 4.86523 21.3242 4.54297 22.1484 4.54297C22.8359 4.54297 23.3477 4.74414 23.6836 5.14648C24.0195 5.54492 24.1875 6.14648 24.1875 6.95117V11H22.4883V6.95703C22.4883 6.59766 22.418 6.33594 22.2773 6.17188C22.1367 6.00391 21.8887 5.91992 21.5332 5.91992C21.0254 5.91992 20.6738 6.16211 20.4785 6.64648L20.4844 11H18.791V6.96289C18.791 6.5957 18.7188 6.33008 18.5742 6.16602C18.4297 6.00195 18.1836 5.91992 17.8359 5.91992C17.3555 5.91992 17.0078 6.11914 16.793 6.51758V11H15.0996V4.66016H16.6875ZM25.2305 7.77148C25.2305 7.14258 25.3516 6.58203 25.5938 6.08984C25.8359 5.59766 26.1836 5.2168 26.6367 4.94727C27.0938 4.67773 27.623 4.54297 28.2246 4.54297C29.0801 4.54297 29.7773 4.80469 30.3164 5.32812C30.8594 5.85156 31.1621 6.5625 31.2246 7.46094L31.2363 7.89453C31.2363 8.86719 30.9648 9.64844 30.4219 10.2383C29.8789 10.8242 29.1504 11.1172 28.2363 11.1172C27.3223 11.1172 26.5918 10.8242 26.0449 10.2383C25.502 9.65234 25.2305 8.85547 25.2305 7.84766V7.77148ZM26.9238 7.89453C26.9238 8.49609 27.0371 8.95703 27.2637 9.27734C27.4902 9.59375 27.8145 9.75195 28.2363 9.75195C28.6465 9.75195 28.9668 9.5957 29.1973 9.2832C29.4277 8.9668 29.543 8.46289 29.543 7.77148C29.543 7.18164 29.4277 6.72461 29.1973 6.40039C28.9668 6.07617 28.6426 5.91406 28.2246 5.91406C27.8105 5.91406 27.4902 6.07617 27.2637 6.40039C27.0371 6.7207 26.9238 7.21875 26.9238 7.89453Z" fill="white"/>
<path d="M39.1406 9.92188C38.8242 10.3008 38.377 10.5957 37.7988 10.8066C37.2207 11.0137 36.5801 11.1172 35.877 11.1172C35.1387 11.1172 34.4902 10.957 33.9316 10.6367C33.377 10.3125 32.9473 9.84375 32.6426 9.23047C32.3418 8.61719 32.1875 7.89648 32.1797 7.06836V6.48828C32.1797 5.63672 32.3223 4.90039 32.6074 4.2793C32.8965 3.6543 33.3105 3.17773 33.8496 2.84961C34.3926 2.51758 35.0273 2.35156 35.7539 2.35156C36.7656 2.35156 37.5566 2.59375 38.127 3.07812C38.6973 3.55859 39.0352 4.25977 39.1406 5.18164H37.4297C37.3516 4.69336 37.1777 4.33594 36.9082 4.10938C36.6426 3.88281 36.2754 3.76953 35.8066 3.76953C35.209 3.76953 34.7539 3.99414 34.4414 4.44336C34.1289 4.89258 33.9707 5.56055 33.9668 6.44727V6.99219C33.9668 7.88672 34.1367 8.5625 34.4766 9.01953C34.8164 9.47656 35.3145 9.70508 35.9707 9.70508C36.6309 9.70508 37.1016 9.56445 37.3828 9.2832V7.8125H35.7832V6.51758H39.1406V9.92188ZM47.5781 6.92773C47.5781 7.76758 47.4297 8.50391 47.1328 9.13672C46.8359 9.76953 46.4102 10.2578 45.8555 10.6016C45.3047 10.9453 44.6719 11.1172 43.957 11.1172C43.25 11.1172 42.6191 10.9473 42.0645 10.6074C41.5098 10.2676 41.0801 9.7832 40.7754 9.1543C40.4707 8.52148 40.3164 7.79492 40.3125 6.97461V6.55273C40.3125 5.71289 40.4629 4.97461 40.7637 4.33789C41.0684 3.69727 41.4961 3.20703 42.0469 2.86719C42.6016 2.52344 43.2344 2.35156 43.9453 2.35156C44.6562 2.35156 45.2871 2.52344 45.8379 2.86719C46.3926 3.20703 46.8203 3.69727 47.1211 4.33789C47.4258 4.97461 47.5781 5.71094 47.5781 6.54688V6.92773ZM45.7969 6.54102C45.7969 5.64648 45.6367 4.9668 45.3164 4.50195C44.9961 4.03711 44.5391 3.80469 43.9453 3.80469C43.3555 3.80469 42.9004 4.03516 42.5801 4.49609C42.2598 4.95312 42.0977 5.625 42.0938 6.51172V6.92773C42.0938 7.79883 42.2539 8.47461 42.5742 8.95508C42.8945 9.43555 43.3555 9.67578 43.957 9.67578C44.5469 9.67578 45 9.44531 45.3164 8.98438C45.6328 8.51953 45.793 7.84375 45.7969 6.95703V6.54102Z" fill="#FF7A29"/>
</svg>
